<svg xmlns="http://www.w3.org/2000/svg" viewBox="0 0 612 297.79" width="100%" ><defs><style>.a{opacity:.31}.b{fill:#e3f295}.c{fill:#f5cb1f}.d{fill:#f6ea7a}.e{fill:#edaa03}.f{fill:#f3c91d}.g,.k{fill:#fff7b2}.g{fill-opacity:.53}.h{fill:#cb811e}.i{fill:#f8eb78}.j{fill:#fdce1e}.l{fill:#331873}.m{fill:#fff;opacity:.2}.n{fill:#ccf9ef}.o{fill:#7ff0d6}.p{fill:#19bed1}.q{fill:#159bd7}.r{fill:#f4c41d}</style></defs><path d="M98.63 98.69a10.94 10.94 0 0 1 3.42 0 10.35 10.35 0 0 1-3.42 0z" class="b"/><path d="M100.5 117.42c-.08-5.46 4.25-13.87 2.15-18.27-.72-1.52-7.22.58-8.11-.84-3.44-5.53-7.9-10.31-12.08-14.86-7.81-8.45-14.55-15.73-12.61-24.8 1.38-6.48 6.49-7.61 9.42-7.7 13.72-.47 14 19.51 18.8 18.14 1.73-.49-2.51-13.82-3-15.55-1.54-5.43-8.44-9.34-16-9.1a17 17 0 0 0-9.54 3.14 15.92 15.92 0 0 0-6 9.71c-2.64 12.37 5.93 21.63 14.21 30.57C92 103.37 91 100 100.5 117.42z" class="c"/><path d="M63.48 57.29a15.92 15.92 0 0 1 6-9.71 17 17 0 0 1 9.54-3.14 20.75 20.75 0 0 1 2.5.08A16.67 16.67 0 0 0 73 47.59a15.85 15.85 0 0 0-6 9.71c-2.65 12.37 5.92 21.62 14.2 30.57 12.77 13.79 13.35 12.64 20 24.48a22.31 22.31 0 0 0-.72 5.07C91 100 92 103.37 77.69 87.86c-8.28-8.94-16.85-18.2-14.21-30.57z" class="d"/><path d="M178 117.58c.09-5.46-4.2-13.89-2.08-18.27.73-1.52 7.22.61 8.11-.81 3.46-5.52 7.94-10.32 12.14-14.82 7.83-8.4 14.57-15.68 12.67-24.74-1.35-6.48-6.46-7.63-9.38-7.74-13.72-.53-14.06 19.45-18.88 18.06-1.73-.5 2.56-13.81 3.06-15.53 1.56-5.43 8.48-9.31 16.06-9a17 17 0 0 1 9.53 3.17 15.88 15.88 0 0 1 6 9.74c2.59 12.38-6 21.6-14.33 30.51-14.44 15.42-13.38 12.04-22.9 29.43z" class="c"/><path d="M215.21 57.61a15.88 15.88 0 0 0-6-9.74 17 17 0 0 0-9.53-3.17 20.55 20.55 0 0 0-2.49.06 16.66 16.66 0 0 1 8.49 3.11 15.83 15.83 0 0 1 6 9.73c2.59 12.38-6 21.6-14.33 30.52-12.83 13.73-13.41 12.58-20.11 24.39a22.77 22.77 0 0 1 .7 5.07c9.57-17.39 8.51-14 22.93-29.46 8.33-8.91 16.93-18.12 14.34-30.51z" class="e"/><path d="M131.38 149.4h15.45c27.69-9.33 39.83-34.84 39.56-104.18l-94.13-.2c-.57 69.37 11.47 94.98 39.12 104.38z" class="f"/><path d="M106 45.08h15.72c-.4 69.34-.53 89.78 15.32 104.3-16.6-9.38-31.63-25.7-31.04-104.3z" class="g"/><path d="M143.44 149.42h3.39c27.69-9.33 39.83-34.84 39.56-104.18L164 45.2c2.79 56.88.85 78.74-19.38 102.94-.22.27-.68.69-1.18 1.28z" class="e"/><path d="M181 45.24h5.42c.27 69.34-11.87 94.85-39.56 104.18h-5.42c27.66-9.33 39.8-34.84 39.56-104.18z" class="h"/><path d="M92.26 45.05h5.42c-.56 69.35 11.47 94.95 39.12 104.36h-5.42C103.73 140 91.7 114.39 92.26 45.05z" class="i"/><path d="M139.12 149.41h7.7c0 8.12-1.46 10.25-3.52 11.71h-8.41c-2-1.47-3.48-3.6-3.47-11.73z" class="j"/><path d="M139.12 149.41h7.7c0 8.12-1.46 10.25-3.52 11.71h-8.41c-2-1.47-3.48-3.6-3.47-11.73z" class="j"/><path d="M143.87 149.51l-6.61-.1h-5.84 15.4c0 8.12-1.46 10.25-3.52 11.71h-1.87c2.07-1.45 2.41-3.48 2.44-11.61z" class="e"/><path d="M135.27 149.4c0 8.13.38 10.26 2.44 11.73H136c-2-1.48-3.24-3.61-3.24-11.73z" class="k"/><path d="M102.19 214.82c7.84-3.12 30-14.79 32.67-53.7h8.44c2.54 38.92 24.62 50.68 32.44 53.84a5.75 5.75 0 0 1 3.18 5.45l-40-.08-40-.09a5.74 5.74 0 0 1 3.27-5.42z" class="j"/><path d="M107.36 214.83c6.88-3.12 26.3-14.8 28.68-53.7h1.67c-2.38 38.91-8.36 50.61-15.23 53.74-1.67.76-2.8 2.95-2.81 5.43h-15.12c.01-2.51 1.14-4.71 2.81-5.47z" class="k"/><path d="M175.74 215c-7.82-3.16-29.9-14.92-32.44-53.84h-1.9c2.54 38.92 9.29 50.65 17.11 53.8a5.75 5.75 0 0 1 3.18 5.45h17.23a5.75 5.75 0 0 0-3.18-5.41z" class="e"/><path d="M208.2 229.25L70.78 229v-5.12a3.42 3.42 0 0 1 3.43-3.41l130.58.27a3.42 3.42 0 0 1 3.41 3.43z" class="l"/><path d="M71.33 224.38a3.43 3.43 0 0 1 3.43-3.38l130.58.28a3.37 3.37 0 0 1 2.13.75 3.44 3.44 0 0 0-2.67-1.3l-130.58-.27a3.42 3.42 0 0 0-3.43 3.41V229h.54z" class="m"/><path d="M123.55 56.53a70.77 70.77 0 0 1-13.83 9.58 70 70 0 0 1 25-22.18 71.21 71.21 0 0 1-11.17 12.6z" class="n"/><path d="M120.69 56.36a71.08 71.08 0 0 1-9.57-13.82 69.89 69.89 0 0 1 22.17 25 71.12 71.12 0 0 1-12.6-11.18zm-1.91 73.38a37 37 0 0 0 3.85-1.66 35.24 35.24 0 0 0-4.18.13 5.76 5.76 0 0 1-5.85-3.74 37 37 0 0 0-1.66-3.85 36.51 36.51 0 0 0 .12 4.19 5.75 5.75 0 0 1-3.73 5.85 35.93 35.93 0 0 0-3.85 1.65 36.51 36.51 0 0 0 4.19-.12 5.75 5.75 0 0 1 5.85 3.73 36.79 36.79 0 0 0 1.65 3.86 36.5 36.5 0 0 0-.12-4.19 5.74 5.74 0 0 1 3.73-5.85zM68.53 61.26a29 29 0 0 0 3.15-1.35 31.14 31.14 0 0 0-3.42.1 4.71 4.71 0 0 1-4.79-3 29 29 0 0 0-1.35-3.15 31.14 31.14 0 0 0 .1 3.42A4.7 4.7 0 0 1 59.16 62 30.22 30.22 0 0 0 56 63.37a31.31 31.31 0 0 0 3.43-.1 4.71 4.71 0 0 1 4.79 3 29 29 0 0 0 1.35 3.15 31.14 31.14 0 0 0-.1-3.42 4.71 4.71 0 0 1 3.06-4.74z" class="n"/><rect width="31.32" height="7.74" x="124.35" y="68.9" class="o" rx="1.73"/><rect width="31.32" height="7.74" x="124.35" y="85.35" class="p" rx="1.73"/><rect width="31.32" height="7.74" x="124.35" y="102.63" class="q" rx="1.73"/><path d="M530.2 194.08a.92.92 0 0 1-.46.77l-21 13.51a1.37 1.37 0 0 1-1.67-.17.86.86 0 0 1 .2-1.37l19.81-12.74-19.81-12.74a.86.86 0 0 1-.2-1.37 1.37 1.37 0 0 1 1.67-.17l21 13.51a.93.93 0 0 1 .46.77zm-14.76-.77l-21-13.51a1.37 1.37 0 0 0-1.67.17.86.86 0 0 0 .21 1.37l19.81 12.74L493 206.82a.86.86 0 0 0-.21 1.37 1.37 1.37 0 0 0 1.67.17l21-13.51a.92.92 0 0 0 .46-.77.93.93 0 0 0-.48-.77zm-14.29 0l-21-13.51a1.37 1.37 0 0 0-1.67.17.87.87 0 0 0 .21 1.37l19.81 12.74-19.81 12.74a.87.87 0 0 0-.21 1.37 1.37 1.37 0 0 0 1.67.17l21-13.51a.93.93 0 0 0 .45-.77 1 1 0 0 0-.45-.77zm-14.3 0l-21-13.51a1.37 1.37 0 0 0-1.67.17.86.86 0 0 0 .2 1.37l19.81 12.74-19.81 12.74a.86.86 0 0 0-.2 1.37 1.37 1.37 0 0 0 1.67.17l21-13.51a.92.92 0 0 0 .46-.77.93.93 0 0 0-.46-.77zm-14.3 0l-21-13.51a1.37 1.37 0 0 0-1.67.17.86.86 0 0 0 .2 1.37l19.82 12.74-19.82 12.74a.86.86 0 0 0-.2 1.37 1.37 1.37 0 0 0 1.67.17l21-13.51a.92.92 0 0 0 .46-.77.93.93 0 0 0-.46-.77zm-14.3 0l-21-13.51a1.37 1.37 0 0 0-1.67.17.87.87 0 0 0 .21 1.37l19.81 12.74-19.81 12.74a.87.87 0 0 0-.21 1.37 1.37 1.37 0 0 0 1.67.17l21-13.51a.92.92 0 0 0 .46-.77.93.93 0 0 0-.46-.77zm-16.25 0l-21-13.51a1.37 1.37 0 0 0-1.67.17.87.87 0 0 0 .21 1.37l19.81 12.74-19.81 12.74a.87.87 0 0 0-.21 1.37 1.37 1.37 0 0 0 1.67.17l21-13.51a.93.93 0 0 0 .45-.77 1 1 0 0 0-.45-.77zm-14.3 0l-21-13.51a1.37 1.37 0 0 0-1.7.2.86.86 0 0 0 .2 1.37l19.8 12.71-19.81 12.74a.86.86 0 0 0-.2 1.37 1.37 1.37 0 0 0 1.67.17l21-13.51a.92.92 0 0 0 .46-.77.93.93 0 0 0-.42-.77zm-14.3 0l-21-13.51a1.37 1.37 0 0 0-1.67.17.86.86 0 0 0 .2 1.37l19.82 12.74-19.82 12.74a.86.86 0 0 0-.2 1.37 1.37 1.37 0 0 0 1.67.17l21-13.51a.92.92 0 0 0 .46-.77.93.93 0 0 0-.46-.77zm-14.3 0l-21-13.51a1.37 1.37 0 0 0-1.67.17.87.87 0 0 0 .21 1.37l19.81 12.74-19.81 12.74a.87.87 0 0 0-.21 1.37 1.37 1.37 0 0 0 1.67.17l21-13.51a.92.92 0 0 0 .46-.77.93.93 0 0 0-.46-.77zm-14.29 0l-21-13.51a1.38 1.38 0 0 0-1.68.17.87.87 0 0 0 .21 1.37l19.81 12.74-19.81 12.74a.87.87 0 0 0-.21 1.37 1.38 1.38 0 0 0 1.68.17l21-13.51a.93.93 0 0 0 .45-.77 1 1 0 0 0-.45-.77zm-14.3 0l-21-13.51a1.37 1.37 0 0 0-1.67.17.86.86 0 0 0 .2 1.37l19.81 12.74L348 206.82a.86.86 0 0 0-.2 1.37 1.37 1.37 0 0 0 1.67.17l21-13.51a.92.92 0 0 0 .46-.77.93.93 0 0 0-.42-.77z" class="r"/><path d="M247.07 89.91a8.34 8.34 0 0 1-7.35-4.12l-15-23.21v27.33h-11.09V54.27a8.67 8.67 0 0 1 8.65-8.65 8.19 8.19 0 0 1 7.28 4.12L244.6 73V45.62h11.12v35.64a8.67 8.67 0 0 1-8.65 8.65zm41.82 0v-6.66H275.5l-4.33 6.66H258l26-40.17a8.67 8.67 0 0 1 16 4.53V70h-11.11v-7.42l-6.32 9.62H300v17.71zm26.57 0V56.68h-11V45.62h22.11v44.29zm21.36-33.23h-8.1V45.62h15.51zm10.78 33.23V45.62h11.12v44.29zm16.62-33.23v-5.56a5.3 5.3 0 0 1 1.64-3.85 5.36 5.36 0 0 1 3.92-1.65h24.37a5.53 5.53 0 0 1 5.5 5.5v5.56zm29.93 33.23h-24.37a5.62 5.62 0 0 1-5.56-5.56V58.87h11.12v20h13.25v-20h11.06v25.48a5.45 5.45 0 0 1-1.58 3.91 5.22 5.22 0 0 1-3.92 1.65zm43.33 0a8.32 8.32 0 0 1-7.34-4.12l-15-23.21v27.33H404V54.27a8.67 8.67 0 0 1 8.65-8.65 8.19 8.19 0 0 1 7.35 4.12L435 73V45.62h11.12v35.64a8.67 8.67 0 0 1-8.65 8.65zm41.82 0v-6.66h-13.39l-4.33 6.66H448.4l26-40.17a8.55 8.55 0 0 1 13.43-1.54 8.27 8.27 0 0 1 2.57 6.07V70h-11.1v-7.42L473 72.2h17.44v17.71zm15.52 0V45.62h11.05v44.29zm28 0h-14.75v-11h22.18z" class="l"/><path d="M214.63 116.14v-8.08a7.64 7.64 0 0 1 2.39-5.58 7.73 7.73 0 0 1 5.68-2.39h32.61l10.78 16zm40.68 48.27H222.7a8.16 8.16 0 0 1-8.07-8.08v-37h16.15v29h35.31zM312 139.18v25.23h-16v-25.23l-25.34-39.09h19.15l14.16 21.84 14.17-21.84h19.14zm78.05 25.23h-45.38v-45.08h16.16v3.29h16.06v-6.48h-32.22v-16h40.19q4.89 0 7.09 6.28 1.59 4.68 1.59 12.86 0 4-.2 6.39c-.13 1.59-.26 3.39-.4 5.38q3.19 4.69 6.49 9.28 4 6.28 4 10.77a13.28 13.28 0 0 1-13.36 13.36zm-11.37-25.73h-17.85v9.67h24zm73.9 25.73h-40.69v-64.32h40.69l10.77 16h-35.3v32.21h35.3zM443 140.28h-11.76v-16.06h22.54zm67.92 24.13l-12.56-19.35h-8.28v19.35H474v-45.08h16.06V129h19.35v-12.86H474v-16h43.49q2.38 0 5.18 2.79t2.79 5.18v29a8.57 8.57 0 0 1-8 8l12.54 19.3z" class="o"/><path d="M213.81 191.19v-6a5.71 5.71 0 0 1 1.79-4.19 5.79 5.79 0 0 1 4.24-1.79h24.32l8 12zm30.35 36h-24.32a6.1 6.1 0 0 1-6-6v-27.6h12.06v21.65h26.3zm17.28 0a6.08 6.08 0 0 1-6-6v-42h12.05v36h14.35v-36h12v48zm70.39-14.43h-20.38v14.43H299.4v-33.62h12.05v7.21h14.36v-9.59H299.4v-12h32.43c1.19 0 2.48.7 3.87 2.08s2.08 2.68 2.08 3.87v21.65a6.4 6.4 0 0 1-5.95 5.95zm29.71 12.09a2.86 2.86 0 0 1-1 1.33 3.66 3.66 0 0 1-1.44.63 9.39 9.39 0 0 1-2 .2h-10.17a.18.18 0 0 1-.2-.2v-13.36c0-.15.06-.22.2-.22h9.48c3.2 0 4.79 1.18 4.79 3.53a3.56 3.56 0 0 1-1 2.89 3.26 3.26 0 0 1 1.66 3.24 5.48 5.48 0 0 1-.32 1.96zm-2.71-9.34A3.05 3.05 0 0 0 357 215h-8.47v3.89H357a3 3 0 0 0 1.76-.37 1.57 1.57 0 0 0 .72-1.56 1.72 1.72 0 0 0-.65-1.45zm.63 5.6a2.66 2.66 0 0 0-.79-.31 5.87 5.87 0 0 0-1.19-.1h-9v4.52h9.06a2.79 2.79 0 0 0 1.94-.57 2.27 2.27 0 0 0 .62-1.76 2.1 2.1 0 0 0-.64-1.78zm12.99-.57v6.27c0 .13-.06.2-.19.2h-1.48c-.12 0-.18-.07-.18-.2v-6.27l-6.81-7a.07.07 0 0 1 0-.07v-.06a.19.19 0 0 1 .22-.22h1.95a.08.08 0 0 1 .07 0l5.53 5.66 5.53-5.66a.25.25 0 0 1 .15 0h1.94c.11 0 .17.07.17.22v.06a.08.08 0 0 1 0 .07zM403.4 223v.09a3.68 3.68 0 0 1-1.39 3.2 6.52 6.52 0 0 1-3.5.76h-4.94a13.55 13.55 0 0 1-2.47-.19 4.77 4.77 0 0 1-1.71-.6 3.42 3.42 0 0 1-1-1 4.29 4.29 0 0 1-.58-1.51 28.93 28.93 0 0 1-.2-4.25c0-2.46.45-4.14 1.35-5q1.33-1.31 5-1.31h4.57a5.81 5.81 0 0 1 3.66 1 3.55 3.55 0 0 1 1.23 3c0 .13-.06.2-.17.2h-1.37a.18.18 0 0 1-.2-.2q0-2.16-3.15-2.16h-4.73a11 11 0 0 0-2 .16 4.62 4.62 0 0 0-1.25.39 2.57 2.57 0 0 0-1.07 1.85 7.44 7.44 0 0 0-.1 1.23v2.19a13.87 13.87 0 0 0 .17 2.36 3 3 0 0 0 .47 1.31c.5.58 1.65.88 3.43.88h5.08a5.24 5.24 0 0 0 2.28-.38 1.72 1.72 0 0 0 .89-1.76v-.06a.18.18 0 0 1 .2-.2h1.39zm10.6-2.46v6.27c0 .13-.06.2-.19.2h-1.48c-.12 0-.18-.07-.18-.2v-6.27l-6.81-7a.07.07 0 0 1 0-.07v-.06c0-.15.07-.22.21-.22h2a.1.1 0 0 1 .07 0l5.53 5.66 5.52-5.66a.28.28 0 0 1 .16 0h1.93c.12 0 .18.07.18.22v.06a.08.08 0 0 1 0 .07zm23.71 4.31a2.86 2.86 0 0 1-1 1.33 3.66 3.66 0 0 1-1.44.63 9.39 9.39 0 0 1-2 .2H423.1a.18.18 0 0 1-.2-.2v-13.36c0-.15.07-.22.2-.22h9.49q4.79 0 4.78 3.53a3.56 3.56 0 0 1-1 2.89 3.24 3.24 0 0 1 1.66 3.24 5.48 5.48 0 0 1-.32 1.96zm-2.71-9.34a3.05 3.05 0 0 0-1.87-.47h-8.47v3.89h8.49a3 3 0 0 0 1.77-.37 1.58 1.58 0 0 0 .71-1.56 1.72 1.72 0 0 0-.63-1.49zm.63 5.6a2.55 2.55 0 0 0-.79-.31 5.81 5.81 0 0 0-1.19-.1h-9v4.52h9.06a2.84 2.84 0 0 0 1.95-.57 2.31 2.31 0 0 0 .62-1.76 2.1 2.1 0 0 0-.65-1.78zm5.23 5.89a.18.18 0 0 1-.2-.2v-13.35c0-.15.07-.22.2-.22h11.62c.11 0 .17.07.17.22v1.37c0 .14-.06.22-.17.22h-10.06v4h9.73c.12 0 .18.07.18.22v1.37c0 .14-.06.22-.18.22h-9.73v4.39h10.06c.11 0 .17.07.17.2v1.39c0 .13-.06.2-.17.2zm27.4 0a.18.18 0 0 1-.2-.2c0-.38 0-.95.07-1.72 0-.37.05-.69.06-1s0-.47 0-.61a4.61 4.61 0 0 0-.13-1.21 2.27 2.27 0 0 0-.35-.8 1.82 1.82 0 0 0-.9-.53 5.24 5.24 0 0 0-1.42-.16h-8.84v6a.18.18 0 0 1-.2.2H455c-.13 0-.19-.07-.19-.2v-13.32c0-.15.06-.22.19-.22h9.66q4.64 0 4.64 3.68a4.73 4.73 0 0 1-.24 1.6 2 2 0 0 1-.74 1 2.54 2.54 0 0 1 1.24 1.28 3.37 3.37 0 0 1 .27 1 8.42 8.42 0 0 1 .08 1.15v3.92c0 .13-.05.2-.15.2zM465 215.13h-8.44v3.8h8.36c1.72 0 2.59-.64 2.59-1.93s-.83-1.87-2.51-1.87zm7.57 11.87c-.1 0-.16-.06-.16-.18v-1.22a.14.14 0 0 1 .16-.15h1.19c.11 0 .16 0 .16.15v1.22c0 .12-.05.18-.16.18zm19.63-3.93a6.25 6.25 0 0 1-.44 1.7 3.67 3.67 0 0 1-.87 1.12 3.36 3.36 0 0 1-1.28.68 8.73 8.73 0 0 1-1.64.31 23.44 23.44 0 0 1-2.43.11h-2.11a12.08 12.08 0 0 1-4.6-.61 3.45 3.45 0 0 1-1.93-2.33 9 9 0 0 1-.25-1.76c0-.76-.08-1.69-.08-2.81a20.67 20.67 0 0 1 .12-2.39 5.25 5.25 0 0 1 .43-1.68 3.39 3.39 0 0 1 .86-1.12 3.69 3.69 0 0 1 1.31-.73 14.23 14.23 0 0 1 4.12-.41h2.11a12 12 0 0 1 4.57.63 3.13 3.13 0 0 1 1.18.89 3.78 3.78 0 0 1 .73 1.46 13.39 13.39 0 0 1 .22 1.74c.06.75.09 1.69.09 2.81a20.35 20.35 0 0 1-.11 2.39zm-1.61-3.57a17.68 17.68 0 0 0-.09-1.92 3.69 3.69 0 0 0-.33-1.26 1.72 1.72 0 0 0-1.37-1.13 16.17 16.17 0 0 0-3.28-.22h-2.09a16.6 16.6 0 0 0-3.31.22 1.89 1.89 0 0 0-1.42 1.13 8.89 8.89 0 0 0-.41 3.18v1.2a8.79 8.79 0 0 0 .41 3.17 1.94 1.94 0 0 0 1.44 1.11 15.56 15.56 0 0 0 3.29.22h2.09a15.34 15.34 0 0 0 3.26-.22 1.76 1.76 0 0 0 1.39-1.11 3.57 3.57 0 0 0 .33-1.26 17.35 17.35 0 0 0 .09-1.91zm17.95 7.5c-.13 0-.19-.07-.19-.2 0-.38 0-.95.06-1.72 0-.37 0-.69.07-1s0-.47 0-.61a5.08 5.08 0 0 0-.13-1.21 2.71 2.71 0 0 0-.35-.8 1.91 1.91 0 0 0-.9-.53 5.32 5.32 0 0 0-1.43-.16h-8.84v6c0 .13-.06.2-.19.2h-1.39a.18.18 0 0 1-.2-.2v-13.32c0-.15.07-.22.2-.22h9.66q4.63 0 4.63 3.68a5 5 0 0 1-.23 1.6 2 2 0 0 1-.75 1 2.56 2.56 0 0 1 1.25 1.28 3.37 3.37 0 0 1 .27 1 8.46 8.46 0 0 1 .07 1.15v3.92c0 .13-.05.2-.15.2zm-3.24-11.88h-8.45v3.8h8.36c1.73 0 2.59-.64 2.59-1.93s-.8-1.86-2.5-1.86zm23.26 5.29a.12.12 0 0 1 0 .09c0 .86 0 1.58-.05 2.18a10.57 10.57 0 0 1-.13 1.35 3.34 3.34 0 0 1-1.33 2.26 3.61 3.61 0 0 1-1.39.54 9.83 9.83 0 0 1-2 .18h-4.9a13.55 13.55 0 0 1-2.47-.19 4.77 4.77 0 0 1-1.71-.6 3.71 3.71 0 0 1-1-1 4.11 4.11 0 0 1-.59-1.51 14.37 14.37 0 0 1-.13-1.59v-2.66q0-3.72 1.33-5 1.33-1.31 5-1.31h4.55a5.81 5.81 0 0 1 3.66 1 3.55 3.55 0 0 1 1.23 3c0 .13 0 .2-.17.2H527a.18.18 0 0 1-.2-.2 2.78 2.78 0 0 0-.23-1.09 1.46 1.46 0 0 0-.7-.71 4.27 4.27 0 0 0-.87-.35 7 7 0 0 0-1.29-.11H519a11 11 0 0 0-2 .16 4.67 4.67 0 0 0-1.27.39 2.53 2.53 0 0 0-1.06 1.85 25.59 25.59 0 0 0-.13 3.42c0 1.9.21 3.12.65 3.67s1.65.88 3.44.88h5a3.43 3.43 0 0 0 2.52-.66 2.26 2.26 0 0 0 .42-.92 7.06 7.06 0 0 0 .15-1.6h-6.25a.2.2 0 0 1-.22-.22v-1.36a.2.2 0 0 1 .22-.22h7.95z" class="r"/></svg>